<svg width="1440" height="8043" viewBox="0 0 1440 8043" fill="none" xmlns="http://www.w3.org/2000/svg">
<g filter="url(#filter0_f_156_3)">
<ellipse cx="156.734" cy="165.239" rx="258.632" ry="231.239" fill="#1A91FF"/>
</g>
<g filter="url(#filter1_f_156_3)">
<path d="M684.22 453.058C684.22 507.674 637.536 551.949 579.949 551.949C522.362 551.949 475.679 507.674 475.679 453.058C475.679 398.441 522.362 354.166 579.949 354.166C637.536 354.166 684.22 398.441 684.22 453.058Z" fill="#84FF89"/>
</g>
<g filter="url(#filter2_f_156_3)">
<ellipse cx="244.063" cy="202.893" rx="244.063" ry="202.893" transform="matrix(0.447952 -0.877811 0.893774 0.479023 -196.017 4556.76)" fill="#1A91FF"/>
</g>
<g filter="url(#filter3_f_156_3)">
<path d="M500.808 4141.74C558.642 4172.73 584.304 4239.45 558.126 4290.75C531.948 4342.04 463.843 4358.5 406.009 4327.51C348.175 4296.51 322.513 4229.8 348.691 4178.5C374.869 4127.2 442.974 4110.74 500.808 4141.74Z" fill="#84FF89"/>
</g>
<g filter="url(#filter4_f_156_3)">
<ellipse cx="244.063" cy="202.893" rx="244.063" ry="202.893" transform="matrix(0.447952 -0.877811 0.893774 0.479023 784.823 5280.64)" fill="#1A91FF"/>
</g>
<g filter="url(#filter5_f_156_3)">
<path d="M1481.65 4865.61C1539.48 4896.61 1565.14 4963.32 1538.97 5014.62C1512.79 5065.92 1444.68 5082.38 1386.85 5051.38C1329.01 5020.39 1303.35 4953.67 1329.53 4902.37C1355.71 4851.08 1423.81 4834.62 1481.65 4865.61Z" fill="#84FF89"/>
</g>
<g filter="url(#filter6_f_156_3)">
<ellipse cx="233.253" cy="175.741" rx="233.253" ry="175.741" transform="matrix(0.923602 -0.383354 0.408825 0.912613 1073.78 1163.47)" fill="#1A91FF"/>
</g>
<g filter="url(#filter7_f_156_3)">
<path d="M1689.83 1398.02C1712.74 1449.17 1689.5 1507.99 1637.92 1529.4C1586.33 1550.81 1525.94 1526.7 1503.03 1475.55C1480.11 1424.4 1503.36 1365.58 1554.94 1344.17C1606.52 1322.76 1666.92 1346.87 1689.83 1398.02Z" fill="#84FF89"/>
</g>
<g filter="url(#filter8_f_156_3)">
<ellipse cx="-46.5522" cy="2243.62" rx="339.73" ry="280.004" transform="rotate(-126.655 -46.5522 2243.62)" fill="#1A91FF"/>
</g>
<g filter="url(#filter9_f_156_3)">
<path d="M117.87 1707.68C191.106 1655.22 290.719 1664.75 340.363 1728.97C390.007 1793.18 370.882 1887.77 297.646 1940.22C224.411 1992.68 124.797 1983.15 75.1534 1918.94C25.5096 1854.72 44.6346 1760.14 117.87 1707.68Z" fill="#84FF89"/>
</g>
<g filter="url(#filter10_f_156_3)">
<ellipse cx="300.617" cy="246.324" rx="300.617" ry="246.324" transform="matrix(-0.420653 0.890132 -0.930162 -0.407279 1830.85 3155.51)" fill="#1A91FF"/>
</g>
<g filter="url(#filter11_f_156_3)">
<path d="M984.179 3718.13C911.106 3686.13 876.415 3608.25 906.694 3544.18C936.973 3480.11 1020.76 3454.11 1093.83 3486.1C1166.9 3518.1 1201.59 3595.98 1171.31 3660.05C1141.03 3724.12 1057.25 3750.12 984.179 3718.13Z" fill="#84FF89"/>
</g>
<g filter="url(#filter12_f_156_3)">
<ellipse cx="244.063" cy="202.893" rx="244.063" ry="202.893" transform="matrix(-0.0419382 0.984609 -1.01206 -0.0635457 288.888 5934.31)" fill="#1A91FF"/>
</g>
<g filter="url(#filter13_f_156_3)">
<path d="M-171.965 6601.71C-237.452 6597.6 -288.554 6547.62 -286.103 6490.08C-283.652 6432.54 -228.577 6389.23 -163.089 6393.34C-97.6017 6397.45 -46.5002 6447.43 -48.9511 6504.97C-51.4019 6562.51 -106.477 6605.82 -171.965 6601.71Z" fill="#84FF89"/>
</g>
<g filter="url(#filter14_f_156_3)">
<ellipse cx="210.077" cy="177.008" rx="210.077" ry="177.008" transform="matrix(-0.966406 0.192223 -0.132583 -1.00512 1479.91 8043.46)" fill="#1A91FF"/>
</g>
<g filter="url(#filter15_f_156_3)">
<path d="M680.045 7723.56C668.691 7637.49 719.267 7555.82 793.009 7541.15C866.751 7526.48 935.735 7584.37 947.089 7670.45C958.443 7756.52 907.867 7838.19 834.125 7852.86C760.383 7867.53 691.399 7809.64 680.045 7723.56Z" fill="#84FF89"/>
</g>
<g filter="url(#filter16_f_156_3)">
<ellipse cx="173.541" cy="146.223" rx="173.541" ry="146.223" transform="matrix(0.531367 0.829783 -0.887582 0.48995 1399.78 6327.47)" fill="#1A91FF"/>
</g>
<g filter="url(#filter17_f_156_3)">
<path d="M1394.64 7039.09C1331.85 7073.75 1253.8 7059.44 1220.3 7007.14C1186.81 6954.83 1210.56 6884.33 1273.35 6849.67C1336.14 6815.01 1414.19 6829.32 1447.68 6881.62C1481.18 6933.93 1457.43 7004.43 1394.64 7039.09Z" fill="#84FF89"/>
</g>
<defs>
<filter id="filter0_f_156_3" x="-761.898" y="-726" width="1837.26" height="1782.48" filterUnits="userSpaceOnUse" color-interpolation-filters="sRGB">
<feFlood flood-opacity="0" result="BackgroundImageFix"/>
<feBlend mode="normal" in="SourceGraphic" in2="BackgroundImageFix" result="shape"/>
<feGaussianBlur stdDeviation="330" result="effect1_foregroundBlur_156_3"/>
</filter>
<filter id="filter1_f_156_3" x="115.679" y="-5.83389" width="928.541" height="917.783" filterUnits="userSpaceOnUse" color-interpolation-filters="sRGB">
<feFlood flood-opacity="0" result="BackgroundImageFix"/>
<feBlend mode="normal" in="SourceGraphic" in2="BackgroundImageFix" result="shape"/>
<feGaussianBlur stdDeviation="180" result="effect1_foregroundBlur_156_3"/>
</filter>
<filter id="filter2_f_156_3" x="-817.127" y="3504.4" width="1823.56" height="1870.63" filterUnits="userSpaceOnUse" color-interpolation-filters="sRGB">
<feFlood flood-opacity="0" result="BackgroundImageFix"/>
<feBlend mode="normal" in="SourceGraphic" in2="BackgroundImageFix" result="shape"/>
<feGaussianBlur stdDeviation="350" result="effect1_foregroundBlur_156_3"/>
</filter>
<filter id="filter3_f_156_3" x="-61.5653" y="3726.08" width="1029.95" height="1017.08" filterUnits="userSpaceOnUse" color-interpolation-filters="sRGB">
<feFlood flood-opacity="0" result="BackgroundImageFix"/>
<feBlend mode="normal" in="SourceGraphic" in2="BackgroundImageFix" result="shape"/>
<feGaussianBlur stdDeviation="200" result="effect1_foregroundBlur_156_3"/>
</filter>
<filter id="filter4_f_156_3" x="163.712" y="4228.27" width="1823.56" height="1870.63" filterUnits="userSpaceOnUse" color-interpolation-filters="sRGB">
<feFlood flood-opacity="0" result="BackgroundImageFix"/>
<feBlend mode="normal" in="SourceGraphic" in2="BackgroundImageFix" result="shape"/>
<feGaussianBlur stdDeviation="350" result="effect1_foregroundBlur_156_3"/>
</filter>
<filter id="filter5_f_156_3" x="919.274" y="4449.96" width="1029.95" height="1017.08" filterUnits="userSpaceOnUse" color-interpolation-filters="sRGB">
<feFlood flood-opacity="0" result="BackgroundImageFix"/>
<feBlend mode="normal" in="SourceGraphic" in2="BackgroundImageFix" result="shape"/>
<feGaussianBlur stdDeviation="200" result="effect1_foregroundBlur_156_3"/>
</filter>
<filter id="filter6_f_156_3" x="573.9" y="490.775" width="1574.32" height="1487.32" filterUnits="userSpaceOnUse" color-interpolation-filters="sRGB">
<feFlood flood-opacity="0" result="BackgroundImageFix"/>
<feBlend mode="normal" in="SourceGraphic" in2="BackgroundImageFix" result="shape"/>
<feGaussianBlur stdDeviation="280" result="effect1_foregroundBlur_156_3"/>
</filter>
<filter id="filter7_f_156_3" x="1234.2" y="1076.36" width="724.454" height="720.857" filterUnits="userSpaceOnUse" color-interpolation-filters="sRGB">
<feFlood flood-opacity="0" result="BackgroundImageFix"/>
<feBlend mode="normal" in="SourceGraphic" in2="BackgroundImageFix" result="shape"/>
<feGaussianBlur stdDeviation="130" result="effect1_foregroundBlur_156_3"/>
</filter>
<filter id="filter8_f_156_3" x="-1109.2" y="1163.85" width="2125.29" height="2159.54" filterUnits="userSpaceOnUse" color-interpolation-filters="sRGB">
<feFlood flood-opacity="0" result="BackgroundImageFix"/>
<feBlend mode="normal" in="SourceGraphic" in2="BackgroundImageFix" result="shape"/>
<feGaussianBlur stdDeviation="380" result="effect1_foregroundBlur_156_3"/>
</filter>
<filter id="filter9_f_156_3" x="-412.457" y="1213.81" width="1240.43" height="1220.28" filterUnits="userSpaceOnUse" color-interpolation-filters="sRGB">
<feFlood flood-opacity="0" result="BackgroundImageFix"/>
<feBlend mode="normal" in="SourceGraphic" in2="BackgroundImageFix" result="shape"/>
<feGaussianBlur stdDeviation="230" result="effect1_foregroundBlur_156_3"/>
</filter>
<filter id="filter10_f_156_3" x="553.529" y="2376.92" width="1843.5" height="1891.71" filterUnits="userSpaceOnUse" color-interpolation-filters="sRGB">
<feFlood flood-opacity="0" result="BackgroundImageFix"/>
<feBlend mode="normal" in="SourceGraphic" in2="BackgroundImageFix" result="shape"/>
<feGaussianBlur stdDeviation="330" result="effect1_foregroundBlur_156_3"/>
</filter>
<filter id="filter11_f_156_3" x="515.748" y="3092.41" width="1046.51" height="1019.4" filterUnits="userSpaceOnUse" color-interpolation-filters="sRGB">
<feFlood flood-opacity="0" result="BackgroundImageFix"/>
<feBlend mode="normal" in="SourceGraphic" in2="BackgroundImageFix" result="shape"/>
<feGaussianBlur stdDeviation="190" result="effect1_foregroundBlur_156_3"/>
</filter>
<filter id="filter12_f_156_3" x="-832.284" y="5221.07" width="1811.2" height="1881.32" filterUnits="userSpaceOnUse" color-interpolation-filters="sRGB">
<feFlood flood-opacity="0" result="BackgroundImageFix"/>
<feBlend mode="normal" in="SourceGraphic" in2="BackgroundImageFix" result="shape"/>
<feGaussianBlur stdDeviation="350" result="effect1_foregroundBlur_156_3"/>
</filter>
<filter id="filter13_f_156_3" x="-686.187" y="5993.07" width="1037.32" height="1008.91" filterUnits="userSpaceOnUse" color-interpolation-filters="sRGB">
<feFlood flood-opacity="0" result="BackgroundImageFix"/>
<feBlend mode="normal" in="SourceGraphic" in2="BackgroundImageFix" result="shape"/>
<feGaussianBlur stdDeviation="200" result="effect1_foregroundBlur_156_3"/>
</filter>
<filter id="filter14_f_156_3" x="349.031" y="7023.45" width="1808.78" height="1764.96" filterUnits="userSpaceOnUse" color-interpolation-filters="sRGB">
<feFlood flood-opacity="0" result="BackgroundImageFix"/>
<feBlend mode="normal" in="SourceGraphic" in2="BackgroundImageFix" result="shape"/>
<feGaussianBlur stdDeviation="350" result="effect1_foregroundBlur_156_3"/>
</filter>
<filter id="filter15_f_156_3" x="278.453" y="7138.88" width="1070.23" height="1116.25" filterUnits="userSpaceOnUse" color-interpolation-filters="sRGB">
<feFlood flood-opacity="0" result="BackgroundImageFix"/>
<feBlend mode="normal" in="SourceGraphic" in2="BackgroundImageFix" result="shape"/>
<feGaussianBlur stdDeviation="200" result="effect1_foregroundBlur_156_3"/>
</filter>
<filter id="filter16_f_156_3" x="502.988" y="5682.24" width="1718.44" height="1721.75" filterUnits="userSpaceOnUse" color-interpolation-filters="sRGB">
<feFlood flood-opacity="0" result="BackgroundImageFix"/>
<feBlend mode="normal" in="SourceGraphic" in2="BackgroundImageFix" result="shape"/>
<feGaussianBlur stdDeviation="350" result="effect1_foregroundBlur_156_3"/>
</filter>
<filter id="filter17_f_156_3" x="805.113" y="6430.75" width="1057.76" height="1027.25" filterUnits="userSpaceOnUse" color-interpolation-filters="sRGB">
<feFlood flood-opacity="0" result="BackgroundImageFix"/>
<feBlend mode="normal" in="SourceGraphic" in2="BackgroundImageFix" result="shape"/>
<feGaussianBlur stdDeviation="200" result="effect1_foregroundBlur_156_3"/>
</filter>
</defs>
</svg>
