<svg width="44" height="43" viewBox="0 0 44 43" fill="none" xmlns="http://www.w3.org/2000/svg">
<path d="M22.0018 3.58333C11.8726 3.58333 3.66846 11.601 3.66846 21.5C3.66514 25.2612 4.87435 28.9279 7.12439 31.9794C9.37444 35.031 12.551 37.3122 16.203 38.4993C17.1196 38.6552 17.4643 38.1177 17.4643 37.6465C17.4643 37.2219 17.4405 35.8118 17.4405 34.3104C12.8351 35.1399 11.6435 33.2139 11.2768 32.2052C11.0696 31.6892 10.1768 30.1 9.39763 29.6736C8.75596 29.3385 7.8393 28.509 9.3738 28.4875C10.8185 28.4642 11.8488 29.7864 12.1935 30.3239C13.8435 33.0329 16.478 32.2715 17.5321 31.8021C17.6935 30.6375 18.1738 29.8545 18.7018 29.4066C14.6226 28.9587 10.3601 27.4125 10.3601 20.5594C10.3601 18.61 11.0696 16.9993 12.2393 15.7452C12.056 15.2972 11.4143 13.4608 12.4226 10.9972C12.4226 10.9972 13.9571 10.526 17.4643 12.8319C18.9569 12.4281 20.4989 12.225 22.0476 12.2281C23.606 12.2281 25.1643 12.4288 26.631 12.8319C30.1381 10.5027 31.6726 10.9972 31.6726 10.9972C32.681 13.4608 32.0393 15.2972 31.856 15.7452C33.0238 16.9993 33.7351 18.5885 33.7351 20.5594C33.7351 27.4358 29.4506 28.9587 25.3715 29.4066C26.0351 29.9656 26.609 31.0406 26.609 32.7212C26.609 35.1167 26.5851 37.0427 26.5851 37.6483C26.5851 38.1177 26.9298 38.6767 27.8465 38.4975C31.4847 37.2955 34.646 35.0093 36.8858 31.9604C39.1256 28.9115 40.3313 25.2533 40.3333 21.5C40.3333 11.601 32.1291 3.58333 22 3.58333" fill="#14A7EA"/>
</svg>
