<svg width="39" height="41" viewBox="0 0 39 41" fill="none" xmlns="http://www.w3.org/2000/svg">
<g clip-path="url(#clip0_46_81)">
<path d="M19.5 0C14.2082 0 13.5428 0.025625 11.4636 0.123C9.38438 0.2255 7.96819 0.568875 6.7275 1.07625C5.4255 1.58958 4.24647 2.39696 3.27356 3.44144C2.28003 4.46424 1.51204 5.70373 1.02375 7.0725C0.541125 8.37425 0.212063 9.86562 0.117 12.0437C0.024375 14.2347 0 14.9317 0 20.5026C0 26.0683 0.024375 26.7653 0.117 28.9511C0.2145 31.1344 0.541125 32.6232 1.02375 33.9275C1.52344 35.2754 2.18888 36.4182 3.27356 37.5586C4.35581 38.6989 5.44294 39.401 6.72506 39.9237C7.96819 40.4311 9.38194 40.7771 11.4587 40.877C13.5403 40.9744 14.2033 41 19.5 41C24.7967 41 25.4573 40.9744 27.5389 40.877C29.6132 40.7745 31.0343 40.4311 32.2749 39.9237C33.5761 39.4101 34.7542 38.6027 35.7264 37.5586C36.8111 36.4182 37.4766 35.2754 37.9762 33.9275C38.4564 32.6232 38.7855 31.1344 38.883 28.9511C38.9756 26.7653 39 26.0683 39 20.5C39 14.9317 38.9756 14.2347 38.883 12.0463C38.7855 9.86563 38.4564 8.37425 37.9762 7.0725C37.488 5.70373 36.72 4.46424 35.7264 3.44144C34.7535 2.39696 33.5745 1.58958 32.2725 1.07625C31.0294 0.568875 29.6108 0.222938 27.5364 0.123C25.4548 0.025625 24.7943 0 19.4951 0H19.5ZM17.7523 3.69513H19.5024C24.7089 3.69513 25.3256 3.71306 27.3804 3.813C29.2817 3.90269 30.3152 4.23838 31.0026 4.51769C31.9117 4.88925 32.5626 5.33512 33.2451 6.05263C33.9276 6.77012 34.3493 7.45175 34.7027 8.41012C34.9708 9.13019 35.2877 10.2167 35.373 12.2154C35.4681 14.3756 35.4876 15.0239 35.4876 20.4949C35.4876 25.9658 35.4681 26.6167 35.373 28.7769C35.2877 30.7756 34.9684 31.8596 34.7027 32.5822C34.3878 33.4711 33.8891 34.2755 33.2426 34.9371C32.5601 35.6546 31.9118 36.0979 31.0001 36.4695C30.3176 36.7514 29.2841 37.0845 27.3804 37.1768C25.3256 37.2741 24.7089 37.2972 19.5024 37.2972C14.2959 37.2972 13.6768 37.2741 11.622 37.1768C9.72075 37.0845 8.68969 36.7514 8.00231 36.4695C7.15609 36.1396 6.39015 35.6162 5.75981 34.9371C5.1121 34.275 4.61255 33.4697 4.29731 32.5796C4.03163 31.8596 3.71231 30.7731 3.627 28.7743C3.53438 26.6141 3.51488 25.9658 3.51488 20.4897C3.51488 15.0137 3.53438 14.3705 3.627 12.2103C3.71475 10.2116 4.03163 9.12506 4.29975 8.40244C4.65319 7.44663 5.07731 6.76244 5.75981 6.04494C6.44231 5.32744 7.09069 4.88413 8.00231 4.51256C8.68969 4.23069 9.72075 3.89756 11.622 3.80531C13.4209 3.71819 14.118 3.69256 17.7523 3.69V3.69513ZM29.9106 7.09812C29.6033 7.09812 29.299 7.16176 29.0151 7.28538C28.7312 7.40901 28.4732 7.59021 28.2559 7.81864C28.0386 8.04707 27.8663 8.31826 27.7487 8.61672C27.6311 8.91518 27.5706 9.23507 27.5706 9.55813C27.5706 9.88118 27.6311 10.2011 27.7487 10.4995C27.8663 10.798 28.0386 11.0692 28.2559 11.2976C28.4732 11.526 28.7312 11.7072 29.0151 11.8309C29.299 11.9545 29.6033 12.0181 29.9106 12.0181C30.5312 12.0181 31.1264 11.7589 31.5652 11.2976C32.004 10.8363 32.2506 10.2106 32.2506 9.55813C32.2506 8.90569 32.004 8.27998 31.5652 7.81864C31.1264 7.3573 30.5312 7.09812 29.9106 7.09812ZM19.5024 9.97325C18.1742 9.95146 16.8551 10.2077 15.6219 10.727C14.3887 11.2463 13.2661 12.0183 12.3195 12.9981C11.3729 13.9779 10.6211 15.1458 10.1079 16.434C9.59478 17.7221 9.33051 19.1047 9.33051 20.5013C9.33051 21.8978 9.59478 23.2804 10.1079 24.5686C10.6211 25.8567 11.3729 27.0247 12.3195 28.0045C13.2661 28.9843 14.3887 29.7563 15.6219 30.2756C16.8551 30.7949 18.1742 31.0511 19.5024 31.0293C22.1314 30.9862 24.6388 29.858 26.4834 27.8883C28.328 25.9186 29.3619 23.2654 29.3619 20.5013C29.3619 17.7372 28.328 15.0839 26.4834 13.1142C24.6388 11.1445 22.1314 10.0164 19.5024 9.97325ZM19.5024 13.6658C20.3561 13.6658 21.2015 13.8426 21.9902 14.186C22.7789 14.5295 23.4956 15.0329 24.0992 15.6675C24.7029 16.3021 25.1817 17.0555 25.5084 17.8847C25.8351 18.7138 26.0033 19.6025 26.0033 20.5C26.0033 21.3975 25.8351 22.2862 25.5084 23.1153C25.1817 23.9445 24.7029 24.6979 24.0992 25.3325C23.4956 25.9671 22.7789 26.4705 21.9902 26.814C21.2015 27.1574 20.3561 27.3342 19.5024 27.3342C17.7783 27.3342 16.1248 26.6142 14.9057 25.3325C13.6865 24.0508 13.0016 22.3125 13.0016 20.5C13.0016 18.6875 13.6865 16.9492 14.9057 15.6675C16.1248 14.3858 17.7783 13.6658 19.5024 13.6658Z" fill="#14A7EA"/>
</g>
<defs>
<clipPath id="clip0_46_81">
<rect width="39" height="41" fill="white"/>
</clipPath>
</defs>
</svg>
