<svg width="47" height="45" viewBox="0 0 47 45" fill="none" xmlns="http://www.w3.org/2000/svg">
<path d="M37.2083 5.625C38.2471 5.625 39.2433 6.02009 39.9778 6.72335C40.7124 7.42661 41.125 8.38044 41.125 9.375V35.625C41.125 36.6196 40.7124 37.5734 39.9778 38.2766C39.2433 38.9799 38.2471 39.375 37.2083 39.375H9.79167C8.7529 39.375 7.75668 38.9799 7.02216 38.2766C6.28765 37.5734 5.875 36.6196 5.875 35.625V9.375C5.875 8.38044 6.28765 7.42661 7.02216 6.72335C7.75668 6.02009 8.7529 5.625 9.79167 5.625H37.2083ZM36.2292 34.6875V24.75C36.2292 23.1289 35.5566 21.5741 34.3593 20.4278C33.162 19.2815 31.5382 18.6375 29.845 18.6375C28.1804 18.6375 26.2417 19.6125 25.3017 21.075V18.9938H19.8379V34.6875H25.3017V25.4437C25.3017 24 26.5158 22.8188 28.0238 22.8188C28.7509 22.8188 29.4482 23.0953 29.9624 23.5876C30.4766 24.0799 30.7654 24.7476 30.7654 25.4437V34.6875H36.2292ZM13.4733 16.05C14.3459 16.05 15.1827 15.7181 15.7997 15.1274C16.4167 14.5366 16.7633 13.7354 16.7633 12.9C16.7633 11.1562 15.2946 9.73125 13.4733 9.73125C12.5956 9.73125 11.7538 10.0651 11.1331 10.6594C10.5124 11.2536 10.1638 12.0596 10.1638 12.9C10.1638 14.6438 11.6521 16.05 13.4733 16.05ZM16.1954 34.6875V18.9938H10.7708V34.6875H16.1954Z" fill="#14A7EA"/>
</svg>
